<?xml version="1.0" encoding="utf-8"?>
<!-- Generator: Adobe Illustrator 23.0.1, SVG Export Plug-In . SVG Version: 6.00 Build 0)  -->
<svg version="1.1" id="Layer_1" xmlns="http://www.w3.org/2000/svg" xmlns:xlink="http://www.w3.org/1999/xlink" x="0px" y="0px"
	 viewBox="0 0 285.7 285.7" style="enable-background:new 0 0 285.7 285.7;" xml:space="preserve">
<style type="text/css">
	.st0{fill:#adadad;}
</style>
<g>
	<path class="st0" d="M201.3,98.6c-1.4-3.5-3-6-5.6-8.6c-2.6-2.6-5.1-4.3-8.6-5.6c-2.6-1-6.6-2.2-13.9-2.6
		c-7.9-0.4-10.3-0.4-30.3-0.4s-22.4,0.1-30.3,0.4c-7.3,0.3-11.3,1.6-13.9,2.6c-3.5,1.4-6,3-8.6,5.6c-2.6,2.6-4.2,5.1-5.6,8.6
		c-1,2.6-2.2,6.6-2.6,13.9c-0.4,7.9-0.4,10.3-0.4,30.3c0,20,0.1,22.4,0.4,30.3c0.3,7.3,1.6,11.3,2.6,13.9c1.4,3.5,3,6,5.6,8.6
		c2.6,2.6,5.1,4.2,8.6,5.6c2.6,1,6.6,2.2,13.9,2.6c7.9,0.4,10.3,0.4,30.3,0.4c20,0,22.4-0.1,30.3-0.4c7.3-0.3,11.3-1.6,13.9-2.6
		c3.5-1.4,6-3,8.6-5.6c2.6-2.6,4.2-5.1,5.6-8.6c1-2.6,2.2-6.6,2.6-13.9c0.4-7.9,0.4-10.3,0.4-30.3c0-20-0.1-22.4-0.4-30.3
		C203.6,105.2,202.3,101.2,201.3,98.6z M142.8,181.4c-21.3,0-38.5-17.2-38.5-38.5c0-21.3,17.2-38.5,38.5-38.5
		c21.3,0,38.5,17.2,38.5,38.5C181.4,164.1,164.1,181.4,142.8,181.4z M182.9,111.8c-5,0-9-4-9-9c0-5,4-9,9-9h0c5,0,9,4,9,9
		C191.9,107.8,187.8,111.8,182.9,111.8z"/>
	<path class="st0" d="M142.8,117.8c-13.8,0-25,11.2-25,25c0,13.8,11.2,25,25,25c13.8,0,25-11.2,25-25
		C167.8,129,156.6,117.8,142.8,117.8z"/>
	<path class="st0" d="M142.8,0C64,0,0,64,0,142.8s64,142.8,142.8,142.8s142.8-64,142.8-142.8S221.7,0,142.8,0z M217.4,173.8
		c-0.4,8-1.6,13.4-3.5,18.2c-1.9,4.9-4.5,9.1-8.7,13.3s-8.4,6.7-13.3,8.7c-4.8,1.9-10.2,3.1-18.2,3.5c-8,0.4-10.6,0.5-30.9,0.5
		c-20.4,0-22.9-0.1-30.9-0.5c-8-0.4-13.4-1.6-18.2-3.5c-4.9-1.9-9.1-4.5-13.3-8.7c-4.2-4.2-6.7-8.4-8.7-13.3
		c-1.9-4.8-3.1-10.2-3.5-18.2c-0.4-8-0.5-10.6-0.5-30.9c0-20.4,0.1-22.9,0.5-30.9c0.4-8,1.6-13.4,3.5-18.2c1.9-4.9,4.5-9.1,8.7-13.3
		s8.4-6.7,13.3-8.7c4.8-1.9,10.2-3.1,18.2-3.5c8-0.4,10.6-0.5,30.9-0.5s22.9,0.1,30.9,0.5c8,0.4,13.4,1.6,18.2,3.5
		c4.9,1.9,9.1,4.5,13.3,8.7s6.7,8.4,8.7,13.3c1.9,4.8,3.1,10.2,3.5,18.2c0.4,8,0.4,10.6,0.4,30.9
		C217.8,163.2,217.8,165.8,217.4,173.8z"/>
</g>
</svg>
