<?xml version="1.0" encoding="UTF-8"?>
<svg id="Layer_1" xmlns="http://www.w3.org/2000/svg" xmlns:xlink="http://www.w3.org/1999/xlink" version="1.1" viewBox="0 0 285.7 285.7">
  <!-- Generator: Adobe Illustrator 29.2.1, SVG Export Plug-In . SVG Version: 2.1.0 Build 116)  -->
  <defs>
    <style>
      .st0 {
        fill: #adadad;
      }
    </style>
  </defs>
  <path class="st0" d="M175.1,146.8c-.4,2.8-1,5.5-1.9,8.1-.9,2.8-3.6,4.6-6.3,4.6s-1.4-.1-2-.4c-3.6-1.3-5.5-5.1-4.3-8.6,1.4-4.1,2-8.2,2-12.6,0-22.1-18-40.1-40.1-40.1s-30.1,9.4-36.4,23.5c6.2,1.5,11.9,4.8,16.6,9.4,2.5,2.7,2.5,7,0,9.5-2.7,2.7-7,2.7-9.5,0-4.3-4.2-9.9-6.6-16-6.6-12.5,0-22.6,10.1-22.6,22.5s10.2,22.5,22.6,22.5h92.2l-.3.4c9.1,0,16.6-7.5,16.6-16.7s-4.4-13.1-10.7-15.5Z"/>
  <path class="st0" d="M142.6,1.4C63.8,1.4-.2,65.4-.2,144.2s64,142.8,142.8,142.8,142.8-64,142.8-142.8S221.5,1.4,142.6,1.4ZM169.4,192h-92.3c-19.9,0-36-16.2-36-36s13.4-33,30.7-35.5c7.3-21.4,27.7-36.2,50.7-36.2s50.6,21.2,53.3,48.2h0c13.6,3,23.7,15,23.7,29.5s-13.6,30.1-30.2,30.1ZM207.4,193.2v-.2c-1.3,0-2.6-.4-3.8-1.2-3.1-2-3.9-6.2-1.8-9.3,4.1-6.1,6.3-13.1,6.3-20.6s-2.2-14.3-6.3-20.6c-2.1-3-1.3-7.2,1.8-9.3,3.1-2,7.2-1.3,9.4,1.9,5.7,8.4,8.6,18.1,8.6,28s-3,19.8-8.6,28c-1.2,2-3.4,3-5.6,3ZM232.3,201.1c-1.1,2-3.3,3-5.5,3v-.2c-1.4,0-2.7-.4-3.8-1.1-3.1-2.1-3.9-6.3-1.9-9.4,6.2-9.3,9.5-20.1,9.5-31.5s-3.3-22.2-9.5-31.5c-2.1-3.1-1.2-7.3,1.8-9.4,3.2-2.1,7.4-1.2,9.4,1.8,7.8,11.5,11.8,25.1,11.8,39.1s-4.1,27.5-11.8,39.1Z"/>
</svg>