<?xml version="1.0" encoding="utf-8"?>
<!-- Generator: Adobe Illustrator 27.8.1, SVG Export Plug-In . SVG Version: 6.00 Build 0)  -->
<svg version="1.1" id="Layer_1" xmlns="http://www.w3.org/2000/svg" xmlns:xlink="http://www.w3.org/1999/xlink" x="0px" y="0px"
	 viewBox="0 0 59 59" style="enable-background:new 0 0 59 59;" xml:space="preserve">
<style type="text/css">
	.st0{fill:#FFFFFF;}
</style>
<rect x="15.6" y="26.7" transform="matrix(0.7071 -0.7071 0.7071 0.7071 -12.2136 29.4864)" class="st0" width="27.7" height="5.6"/>
<g>
	<polygon class="st0" points="33.4,37.4 19.8,51.1 7.9,39.2 21.6,25.5 17.6,21.6 4,35.2 0,39.2 4,43.1 15.8,55 19.6,58.8 19.8,59 
		37.4,41.4 	"/>
	<polygon class="st0" points="21.6,17.6 25.5,21.6 39.2,7.9 51.1,19.8 37.4,33.4 41.4,37.4 55,23.8 59,19.8 55,15.8 43.1,4 
		39.4,0.2 39.2,0 	"/>
</g>
</svg>
