<?xml version="1.0" encoding="UTF-8"?>
<svg id="Layer_1" xmlns="http://www.w3.org/2000/svg" xmlns:xlink="http://www.w3.org/1999/xlink" version="1.1" viewBox="0 0 285.6 285.6">
  <!-- Generator: Adobe Illustrator 29.2.1, SVG Export Plug-In . SVG Version: 2.1.0 Build 116)  -->
  <defs>
    <style>
      .st0 {
        fill: #adadad;
      }
    </style>
  </defs>
  <path class="st0" d="M196.1,152.5c-7.5-21.1-18.3-21.1-21-21.1h0c-5.7,0-10.8,0-17,6.9-4.9-.5-10.1-.8-15.3-.8s-10.3.3-15.3.8c-6.3-6.9-11.3-6.8-17-6.9h0c-2.7,0-13.5,0-21,21.1l-8.1,29c-6,21.5,1.9,22.1,11.8,22.1,14.6-.5,22.7-11.2,22.7-21.8,8.1,1.4,17.5,2,26.9,2s18.9-.6,27-2c0,10.6,8.1,21.2,22.7,21.8,9.8,0,17.7-.5,11.7-22.1l-8.1-29ZM150.8,166.7v8.8c0,.4-4,.3-8.1,0-4,.2-8.1.4-8.1,0v-8.8l-10.1.4c2.8-5,18.1-19.1,18.1-19.1,0,0,15.4,14.1,18.1,19.1l-10.1-.4Z"/>
  <path class="st0" d="M142.8,0C63.9,0,0,63.9,0,142.8s63.9,142.8,142.8,142.8,142.8-63.9,142.8-142.8S221.7,0,142.8,0ZM208.6,215.7c-14,3.3-39.9,4.7-65.8,4.8h0c-25.9,0-51.7-1.5-65.8-4.8-9.1-9.2-7.2-46.9-7.4-63.7,0-3.2,0-5.5,0-8.4h0c.1-5.6.5-13.3,1.2-21.3.6.2,1.2.4,1.9.4h0c5.5,0,10.4-2.2,14-5.7,1.3-1.3,2.6-2.6,3.5-4.2.9,1.6,1.9,3,3.2,4.2,3.6,3.5,8.5,5.7,14,5.7s10.4-2.2,14-5.7h0c1.3-1.3,2.4-2.7,3.4-4.3h0s0,0,0,0c0,0,0,0,0,0h0c.9,1.6,2,3,3.3,4.3,3.6,3.5,8.5,5.7,14,5.7h0c.2,0,.4,0,.6,0,.2,0,.4,0,.6,0h0c5.5,0,10.4-2.2,14-5.7,1.3-1.2,2.4-2.7,3.3-4.3h0c.9,1.7,2,3.1,3.3,4.3,3.6,3.5,8.6,5.7,14,5.7s10.4-2.2,14-5.7c1.3-1.3,2.3-2.6,3.2-4.2h0c.9,1.6,2.2,3,3.5,4.2h0c3.6,3.5,8.6,5.7,14,5.7h0c.6,0,1.3-.2,1.9-.4.8,8,1.1,15.6,1.2,21.2h0c0,2.9,0,5.2,0,8.4-.2,16.8,1.7,54.4-7.4,63.7ZM229.1,99.5c0,9.4-8.8,17.6-16.7,17.6s-17.5-7.9-17.5-17.3c0,9.4-7.7,17.3-17.2,17.3s-17-7.9-17-17.3c0,9.4-8.2,17.3-17.7,17.3h-.2c-9.6,0-17.7-7.9-17.7-17.3,0,9.4-7.4,17.3-17,17.3s-17.2-7.9-17.2-17.3c0,9.4-8,17.3-17.5,17.3s-16.7-8.3-16.7-17.6v-7.4c.1-4.5,15-21.5,22.5-26h0c6.7-.6,39.6-1,63.8-1,24.2,0,40.4.1,63.8,1,7.6,4.5,22.4,21.5,22.5,26v7.4Z"/>
</svg>