<?xml version="1.0" encoding="UTF-8"?>
<svg id="Layer_1" xmlns="http://www.w3.org/2000/svg" xmlns:xlink="http://www.w3.org/1999/xlink" version="1.1" viewBox="0 0 285.7 285.7">
  <!-- Generator: Adobe Illustrator 29.2.1, SVG Export Plug-In . SVG Version: 2.1.0 Build 116)  -->
  <defs>
    <style>
      .st0 {
        fill: #adadad;
      }
    </style>
  </defs>
  <path class="st0" d="M142.7.6C63.9.6-.1,64.6-.1,143.4s64,142.8,142.8,142.8,142.8-64,142.8-142.8S221.6.6,142.7.6ZM225.4,135.5c-6.2,22.3-29,28-49.3,24.6,35.4,6,44.4,26,25,46-36.9,37.9-53.1-9.5-57.2-21.7-.8-2.2-1.1-3.3-1.1-2.4,0-.9-.4.2-1.1,2.4-4.1,12.2-20.3,59.6-57.2,21.7-19.5-20-10.4-39.9,25-46-20.3,3.4-43-2.2-49.3-24.6-1.8-6.4-4.9-46-4.9-51.3,0-26.8,23.5-18.4,38-7.5h0c20.1,15.1,41.7,45.6,49.6,62,7.9-16.4,29.5-47,49.6-62,14.5-10.9,38-19.3,38,7.5s-3.1,44.9-4.9,51.3Z"/>
</svg>