<?xml version="1.0" encoding="utf-8"?>
<!-- Generator: Adobe Illustrator 23.0.1, SVG Export Plug-In . SVG Version: 6.00 Build 0)  -->
<svg version="1.1" id="Layer_1" xmlns="http://www.w3.org/2000/svg" xmlns:xlink="http://www.w3.org/1999/xlink" x="0px" y="0px"
	 viewBox="0 0 285.7 285.7" style="enable-background:new 0 0 285.7 285.7;" xml:space="preserve">
<style type="text/css">
	.st0{fill:#adadad;}
</style>
<path class="st0" d="M142.8,0C64,0,0,64,0,142.8s64,142.8,142.8,142.8s142.8-64,142.8-142.8S221.7,0,142.8,0z M202.5,112.3
	c0.1,1.3,0.1,2.6,0.1,4c0,40.7-31,87.6-87.6,87.6l0,0c-17.4,0-33.6-5.1-47.2-13.8c2.4,0.3,4.9,0.4,7.3,0.4
	c14.4,0,27.7-4.9,38.2-13.2c-13.5-0.2-24.8-9.1-28.7-21.4c1.9,0.4,3.8,0.6,5.8,0.6c2.8,0,5.5-0.4,8.1-1.1
	c-14.1-2.8-24.7-15.3-24.7-30.2c0-0.1,0-0.3,0-0.4c4.1,2.3,8.9,3.7,13.9,3.8c-8.3-5.5-13.7-14.9-13.7-25.6c0-5.6,1.5-10.9,4.2-15.5
	c15.2,18.6,37.9,30.9,63.4,32.2c-0.5-2.3-0.8-4.6-0.8-7c0-17,13.8-30.8,30.8-30.8c8.9,0,16.8,3.7,22.5,9.7c7-1.4,13.6-3.9,19.5-7.5
	c-2.3,7.2-7.2,13.2-13.5,17c6.2-0.7,12.2-2.4,17.7-4.8C213.7,102.5,208.5,107.9,202.5,112.3z"/>
</svg>
