<?xml version="1.0" encoding="UTF-8"?>
<svg id="Layer_1" xmlns="http://www.w3.org/2000/svg" xmlns:xlink="http://www.w3.org/1999/xlink" version="1.1" viewBox="0 0 285.6 285.6">
  <!-- Generator: Adobe Illustrator 29.2.1, SVG Export Plug-In . SVG Version: 2.1.0 Build 116)  -->
  <defs>
    <style>
      .st0 {
        fill: #adadad;
      }
    </style>
  </defs>
  <path class="st0" d="M130.5,121.4s0,0,0,0c0,0,.1,0,.2,0h-.2Z"/>
  <g>
    <path class="st0" d="M184.6,135.5h0c-3.1,0-6,.6-8.8,1.9-2.8,1.2-5.7,3.7-8.8,7.4-.4,1.7-1,5-2,9.9-.9,4.9-1.4,10.9-1.4,18.1s1.2,13,3.4,17.1c2.3,4.1,5.3,6.2,9.1,6.2,5.9,0,11-4.1,15.3-12.2h0c4.3-8.1,6.5-18,6.5-29.5s-1.3-10.4-3.8-13.8-5.7-5.1-9.6-5.1Z"/>
    <path class="st0" d="M142.8,0C64,0,0,64,0,142.8s64,142.8,142.8,142.8,142.8-64,142.8-142.8S221.7,0,142.8,0ZM134.1,177.4c0,4.1-.9,8-2.7,11.7-1.8,3.7-4.4,6.8-7.7,9.3-3.8,2.7-8,4.8-12.6,6.1h-.3c-4.8,1.4-11,2.1-18.5,2.1s-12.4-.6-16.8-1.7c-4.4-1.2-7.9-2.6-10.5-4.5-2.6-1.8-4.4-3.7-5.4-5.8s-1.5-4-1.5-5.8c0-3.3,1.2-6.2,3.5-8.6,2.3-2.5,5.4-3.7,9.3-3.7s5.9.9,8.1,2.6c2.2,1.8,4,4,5.4,6.5h0c1.3,2.4,2.4,5.1,3.3,7.9v.3c.4.8,1.1,3,1.7,5.2l.3,1.3c6.1,0,10.7-1.4,13.8-4.1s4.7-6.5,4.7-11.2-.5-3.8-1.4-5.2c-.9-1.4-2.2-2.7-3.7-3.7-1.6-1-3.5-2-6-3-2.4-1-4.8-1.9-7.2-2.7-6.5-2.3-11.7-5.5-15.4-9.6s-5.7-9.2-5.7-15.3h0c0-3.8.9-7.3,2.4-10.3h0c1.6-3.1,4.1-6,7.5-8.7,3.3-2.6,7.6-4.7,12.7-6.2s11.1-2.3,17.9-2.3h0c4.1,0,7.9.3,11.4.8,3.6.5,6.8,1.5,9.8,2.8,2.7,1.2,4.9,3,6.6,5.3h0c1.6,2.2,2.4,4.9,2.4,8s-1.1,5.8-3.3,8c-2.2,2.2-5.2,3.3-8.8,3.3s-5.7-.9-7.8-2.6-3.7-3.7-5-6c-1.3-2.4-2.3-4.8-3.1-7.4-.8-2.5-1.4-4.6-1.9-6.3-3.8.2-7.2,1.7-10.3,4.3-3.1,2.6-4.7,5.9-4.7,9.8s.4,4.2,1.1,5.6c.7,1.4,1.7,2.5,2.9,3.4h0c1.5,1.1,3.3,2.1,5.1,2.8h.2c1.4.7,4,1.7,6.7,2.7l1.2.4c7.3,2.7,12.8,6,16.5,9.8,3,3.1,4.8,7,5.3,11.7,0-1.1,1.1,10.4.2,1.7,0,.5,0,1.1,0,1.6ZM212.2,188.4c-10.2,9.7-22.7,14.5-37.5,14.5s-21.2-3.5-28.2-10.5-10.5-16.4-10.5-28c0-22.2,7.9-41.2,23.7-57.1s36.6-25.3,62.5-28.4h0s.4,8.2.4,8.2l-8.6,1.5c-6.6,1.8-12.4,4.4-17.3,7.6-4.9,3.3-9.1,6.9-12.5,10.8-3.3,3.8-6.1,8-8.3,12.6l-.2.3c-2.3,4.8-4.3,9.8-6.1,15,3.7-3.2,7.8-5.7,12.3-7.6h.3c4.9-2.2,10.7-3.3,17.5-3.3s14.5,2.8,19.8,8.3,8,12.7,8,21.6c0,13.2-5.1,24.7-15.3,34.4Z"/>
  </g>
</svg>