<?xml version="1.0" encoding="utf-8"?>
<!-- Generator: Adobe Illustrator 23.0.1, SVG Export Plug-In . SVG Version: 6.00 Build 0)  -->
<svg version="1.1" id="Layer_1" xmlns="http://www.w3.org/2000/svg" xmlns:xlink="http://www.w3.org/1999/xlink" x="0px" y="0px"
	 viewBox="0 0 285.7 285.7" style="enable-background:new 0 0 285.7 285.7;" xml:space="preserve">
<style type="text/css">
	.st0{fill:#adadad;}
</style>
<g>
	<path class="st0" d="M142.8,0C64,0,0,64,0,142.8s64,142.8,142.8,142.8s142.8-64,142.8-142.8S221.7,0,142.8,0z M217.8,143
		c0,0,0,24.3-3.1,36.1c-1.7,6.4-6.8,11.5-13.2,13.2c-11.7,3.1-58.7,3.1-58.7,3.1s-46.8,0-58.7-3.2c-6.4-1.7-11.5-6.8-13.2-13.2
		c-3.1-11.6-3.1-36.1-3.1-36.1s0-24.3,3.1-36.1c1.7-6.4,6.9-11.6,13.2-13.3c11.7-3.1,58.7-3.1,58.7-3.1s47,0,58.7,3.2
		c6.4,1.7,11.5,6.8,13.2,13.2C218,118.5,217.8,143,217.8,143z"/>
	<polygon class="st0" points="127.9,165.3 166.9,142.8 127.9,120.4 	"/>
</g>
</svg>
